<mxfile host="app.diagrams.net" agent="Mozilla/5.0 (Windows NT 10.0; Win64; x64) AppleWebKit/537.36 (KHTML, like Gecko) Chrome/136.0.0.0 Safari/537.36 Edg/136.0.0.0" version="26.2.15">
  <diagram name="第 1 页" id="ID_UQHVhjoqJiGheD1iQ">
    <mxGraphModel dx="1004" dy="527" grid="1" gridSize="10" guides="1" tooltips="1" connect="1" arrows="1" fold="1" page="1" pageScale="1" pageWidth="827" pageHeight="1169" math="0" shadow="0">
      <root>
        <mxCell id="0" />
        <mxCell id="1" parent="0" />
        <mxCell id="gWXZ6yXSmxXJjN5SBoFb-3" style="edgeStyle=orthogonalEdgeStyle;rounded=0;orthogonalLoop=1;jettySize=auto;html=1;exitX=1;exitY=0.3333333333333333;exitDx=0;exitDy=0;exitPerimeter=0;" edge="1" parent="1" source="gWXZ6yXSmxXJjN5SBoFb-1">
          <mxGeometry relative="1" as="geometry">
            <mxPoint x="160" y="210" as="targetPoint" />
          </mxGeometry>
        </mxCell>
        <mxCell id="gWXZ6yXSmxXJjN5SBoFb-1" value="&lt;font face=&quot;Times New Roman&quot;&gt;用户&lt;/font&gt;" style="shape=umlActor;verticalLabelPosition=bottom;verticalAlign=top;html=1;outlineConnect=0;" vertex="1" parent="1">
          <mxGeometry x="90" y="190" width="30" height="60" as="geometry" />
        </mxCell>
        <mxCell id="gWXZ6yXSmxXJjN5SBoFb-4" value="&lt;font face=&quot;Times New Roman&quot;&gt;访问系统&lt;/font&gt;" style="ellipse;whiteSpace=wrap;html=1;" vertex="1" parent="1">
          <mxGeometry x="160" y="190" width="90" height="40" as="geometry" />
        </mxCell>
        <mxCell id="gWXZ6yXSmxXJjN5SBoFb-7" value="" style="endArrow=classic;html=1;rounded=0;entryX=0;entryY=0.5;entryDx=0;entryDy=0;" edge="1" parent="1" target="gWXZ6yXSmxXJjN5SBoFb-8">
          <mxGeometry width="50" height="50" relative="1" as="geometry">
            <mxPoint x="210" y="190" as="sourcePoint" />
            <mxPoint x="260" y="140" as="targetPoint" />
          </mxGeometry>
        </mxCell>
        <mxCell id="gWXZ6yXSmxXJjN5SBoFb-8" value="&lt;font face=&quot;Times New Roman&quot;&gt;注册&lt;/font&gt;" style="ellipse;whiteSpace=wrap;html=1;" vertex="1" parent="1">
          <mxGeometry x="270" y="120" width="100" height="40" as="geometry" />
        </mxCell>
        <mxCell id="gWXZ6yXSmxXJjN5SBoFb-10" value="" style="endArrow=classic;html=1;rounded=0;exitX=0.5;exitY=1;exitDx=0;exitDy=0;entryX=0.043;entryY=0.325;entryDx=0;entryDy=0;entryPerimeter=0;" edge="1" parent="1" source="gWXZ6yXSmxXJjN5SBoFb-4" target="gWXZ6yXSmxXJjN5SBoFb-11">
          <mxGeometry width="50" height="50" relative="1" as="geometry">
            <mxPoint x="240" y="280" as="sourcePoint" />
            <mxPoint x="260" y="270" as="targetPoint" />
          </mxGeometry>
        </mxCell>
        <mxCell id="gWXZ6yXSmxXJjN5SBoFb-11" value="&lt;font face=&quot;Times New Roman&quot;&gt;登录&lt;/font&gt;" style="ellipse;whiteSpace=wrap;html=1;" vertex="1" parent="1">
          <mxGeometry x="270" y="260" width="100" height="40" as="geometry" />
        </mxCell>
        <mxCell id="gWXZ6yXSmxXJjN5SBoFb-15" value="&lt;font face=&quot;Times New Roman&quot;&gt;使用功能&lt;/font&gt;" style="ellipse;whiteSpace=wrap;html=1;" vertex="1" parent="1">
          <mxGeometry x="400" y="190" width="90" height="40" as="geometry" />
        </mxCell>
        <mxCell id="gWXZ6yXSmxXJjN5SBoFb-19" value="" style="endArrow=classic;html=1;rounded=0;entryX=0.221;entryY=0.061;entryDx=0;entryDy=0;exitX=1;exitY=0.5;exitDx=0;exitDy=0;entryPerimeter=0;" edge="1" parent="1" source="gWXZ6yXSmxXJjN5SBoFb-8" target="gWXZ6yXSmxXJjN5SBoFb-15">
          <mxGeometry width="50" height="50" relative="1" as="geometry">
            <mxPoint x="400" y="170" as="sourcePoint" />
            <mxPoint x="460" y="120" as="targetPoint" />
          </mxGeometry>
        </mxCell>
        <mxCell id="gWXZ6yXSmxXJjN5SBoFb-20" value="" style="endArrow=classic;html=1;rounded=0;exitX=0.5;exitY=1;exitDx=0;exitDy=0;entryX=0.363;entryY=0.964;entryDx=0;entryDy=0;entryPerimeter=0;" edge="1" parent="1" target="gWXZ6yXSmxXJjN5SBoFb-15">
          <mxGeometry width="50" height="50" relative="1" as="geometry">
            <mxPoint x="370" y="280" as="sourcePoint" />
            <mxPoint x="420" y="230" as="targetPoint" />
          </mxGeometry>
        </mxCell>
      </root>
    </mxGraphModel>
  </diagram>
</mxfile>
